<svg xmlns="http://www.w3.org/2000/svg" 
     viewBox="285 135 430 500" 
     preserveAspectRatio="xMidYMid meet"> 
     <!-- 
       调整了 viewBox:
       - min-x: ~285 (原最左 300 - 外层描边宽度一半 25/2 = 287.5，取整并留一点空隙)
       - min-y: ~135 (原最顶 150 - 外层描边宽度一半 25/2 = 137.5，取整并留一点空隙)
       - width: ~430 (原最右 700 + 12.5 - 最左 287.5 = 425，取整并留一点空隙)
       - height: ~630 (原最底 750 + 12.5 - 最顶 137.5 = 625，取整并留一点空隙)
       这个 viewBox 更紧密地包裹了绘制的图形。
       
       添加了 preserveAspectRatio="xMidYMid meet": 
       确保图形在缩放时保持其原始宽高比并居中显示。

       移除了 SVG 上的 width 和 height 属性: 
       建议在 HTML 或 CSS 中控制 SVG 的显示尺寸，这样更灵活。
       例如: <img src="your-door.svg" alt="Door" style="width: 50px; vertical-align: middle;"> 
             或者 .title-icon { width: 50px; height: auto; margin-right: 5px; vertical-align: middle; }
     -->
  <defs>
    <!-- 定义金色渐变 -->
    <linearGradient id="goldGradient" x1="0%" y1="0%" x2="100%" y2="100%">
      <stop offset="0%" style="stop-color:#FFD700; stop-opacity:1"/>
      <stop offset="50%" style="stop-color:#DAA520; stop-opacity:1"/>
      <stop offset="100%" style="stop-color:#B8860B; stop-opacity:1"/>
    </linearGradient>

    <!-- (可选) 定义一个轻微的阴影效果 -->
    <filter id="dropShadow" x="-20%" y="-20%" width="140%" height="140%">
      <feGaussianBlur in="SourceAlpha" stdDeviation="3"/>
      <feOffset dx="2" dy="2" result="offsetblur"/>
      <feComponentTransfer>
        <feFuncA type="linear" slope="0.5"/>
      </feComponentTransfer>
      <feMerge>
        <feMergeNode/>
        <feMergeNode in="SourceGraphic"/>
      </feMerge>
    </filter>
  </defs>

  <!-- 背景 (可选，如果需要透明背景可以移除) -->
  <!-- 注意：如果需要严格紧挨，背景也需要调整或移除，因为它会填充整个 viewBox -->
  <!-- <rect x="285" y="135" width="430" height="630" fill="#222" /> --> 
  <!-- 如果需要背景，可以用上面这行替换掉 width="100%" height="100%" 的背景 -->

  <!-- 最外层 -->
  <path d="M 300 750 L 300 250 A 200 200 0 0 1 500 150 A 200 200 0 0 1 700 250 L 700 750 Z"
        fill="none" stroke="url(#goldGradient)" stroke-width="25" filter="url(#dropShadow)"/>

  <!-- 第二层 -->
  <path d="M 325 725 L 325 275 A 175 175 0 0 1 500 175 A 175 175 0 0 1 675 275 L 675 725 Z"
        fill="none" stroke="url(#goldGradient)" stroke-width="20" filter="url(#dropShadow)"/>

  <!-- 第三层 -->
  <path d="M 350 700 L 350 300 A 150 150 0 0 1 500 200 A 150 150 0 0 1 650 300 L 650 700 Z"
        fill="none" stroke="url(#goldGradient)" stroke-width="16" filter="url(#dropShadow)"/>

  <!-- 第四层 -->
  <path d="M 375 675 L 375 325 A 125 125 0 0 1 500 225 A 125 125 0 0 1 625 325 L 625 675 Z"
        fill="none" stroke="url(#goldGradient)" stroke-width="12" filter="url(#dropShadow)"/>

  <!-- 第五层 -->
  <path d="M 400 650 L 400 350 A 100 100 0 0 1 500 250 A 100 100 0 0 1 600 350 L 600 650 Z"
        fill="none" stroke="url(#goldGradient)" stroke-width="9" filter="url(#dropShadow)"/>

  <!-- 第六层 -->
  <path d="M 425 625 L 425 375 A 75 75 0 0 1 500 275 A 75 75 0 0 1 575 375 L 575 625 Z"
        fill="none" stroke="url(#goldGradient)" stroke-width="6" filter="url(#dropShadow)"/>

</svg>